<svg xmlns="http://www.w3.org/2000/svg" width="59.137" height="22.426" viewBox="0 0 59.137 22.426"><defs><style>.a{fill:#303030;}</style></defs><g transform="translate(0 0)"><path class="a" d="M-299.468-61.033c-.017-.213-.049-.426-.05-.64q-.018-5.019-.03-10.039c0-.161-.016-.321-.026-.519h-2.253v-3.834h2.278c0-.249,0-.443,0-.635.03-1.109-.008-2.225.111-3.324a3.3,3.3,0,0,1,2.691-3.062,18.675,18.675,0,0,1,2.357-.273c.2-.021.393-.035.59-.053h.4l1.815.092v3.873c-.251,0-.522,0-.794,0-.563,0-1.126,0-1.688.016-.664.025-.876.208-.9.859-.032.809-.008,1.62-.008,2.483h3.424c-.108,1.218-.2,2.379-.331,3.537-.01.091-.262.217-.4.22-.876.02-1.753.01-2.7.01,0,.22,0,.4,0,.571q-.015,5.066-.034,10.132a5.341,5.341,0,0,1-.065.585Z" transform="translate(301.827 83.411)"/></g><g transform="translate(36.701 0)"><path class="a" d="M-346.984,182.279q0-2.319,0-4.639a6.329,6.329,0,0,1,5.161-6.4,8.613,8.613,0,0,1,1.748-.183c2.881-.017,5.762-.009,8.644,0a6.894,6.894,0,0,1,5.259,2.2,5.639,5.639,0,0,1,1.6,3.9q.039,5.012,0,10.024a6.168,6.168,0,0,1-4.025,5.752,7.063,7.063,0,0,1-2.844.537q-4.344.005-8.689,0a6.885,6.885,0,0,1-5.224-2.18,5.768,5.768,0,0,1-1.632-4.026c-.015-1.659,0-3.318,0-4.978Zm20.776-.045h0c0-1.7,0-3.409,0-5.113a3.592,3.592,0,0,0-.541-1.911,4.974,4.974,0,0,0-4.37-2.5c-3.069-.039-6.139-.014-9.208-.013a5.149,5.149,0,0,0-2.839.846,4.41,4.41,0,0,0-2.167,3.948c.013,3.258,0,6.516,0,9.774a3.807,3.807,0,0,0,.541,2.026,4.952,4.952,0,0,0,4.361,2.512c3.054.042,6.109.013,9.163.013a5.24,5.24,0,0,0,2.867-.832,4.362,4.362,0,0,0,2.193-3.886Q-326.211,184.666-326.208,182.234Z" transform="translate(346.988 -171.043)"/><path class="a" d="M-297.266,223.19a5.237,5.237,0,0,1-5.246-5.252,5.248,5.248,0,0,1,5.273-5.133,5.241,5.241,0,0,1,5.247,5.205A5.249,5.249,0,0,1-297.266,223.19Zm0-1.65a3.578,3.578,0,0,0,3.629-3.506,3.573,3.573,0,0,0-3.579-3.577,3.577,3.577,0,0,0-3.64,3.518A3.572,3.572,0,0,0-297.271,221.54Z" transform="translate(308.491 -207.192)"/><path class="a" d="M-225.582,202.163a1.145,1.145,0,0,1-1.079,1.147,1.14,1.14,0,0,1-1.113-1.134,1.145,1.145,0,0,1,1.078-1.148A1.145,1.145,0,0,1-225.582,202.163Z" transform="translate(243.8 -196.997)"/></g></svg>