<svg xmlns="http://www.w3.org/2000/svg" width="19.182" height="17.053" viewBox="0 0 19.182 17.053"><defs><style>.a{fill:#303030;stroke:#fff;stroke-width:0.3px;}</style></defs><path class="a" d="M-471.771,699.151a19.847,19.847,0,0,1-.645,1.94,15.792,15.792,0,0,1-3.005,4.239,38.368,38.368,0,0,1-5.211,4.619.766.766,0,0,1-1.049.063,33.759,33.759,0,0,1-6.93-6.633,10.257,10.257,0,0,1-1.881-3.69,5.141,5.141,0,0,1,5.641-6.2,5.271,5.271,0,0,1,3.429,1.673l.2.214c.334-.295.636-.6.982-.859a5.321,5.321,0,0,1,8.407,3.211,1.092,1.092,0,0,0,.065.182Zm-9.488,9.462c.1-.06.14-.078.174-.1a35.5,35.5,0,0,0,5.108-4.721,13.016,13.016,0,0,0,2.4-3.645,3.841,3.841,0,0,0,.148-2.771,3.77,3.77,0,0,0-3.2-2.471,3.789,3.789,0,0,0-3.836,2.046.8.8,0,0,1-.735.535.8.8,0,0,1-.734-.537,3.813,3.813,0,0,0-3.939-2.038,3.708,3.708,0,0,0-3.271,4.038,6.613,6.613,0,0,0,.913,2.4,21.371,21.371,0,0,0,4.013,4.7C-483.258,706.93-482.242,707.763-481.258,708.613Z" transform="translate(490.803 -693.278)"/></svg>